<?xml version="1.0" encoding="UTF-8" standalone="no"?>
<svg
   style="fill:none"
   id="svg84"
   version="1.1"
   viewBox="0 0 79.154152 83.936546"
   height="83.936546"
   width="79.154152"
   xmlns="http://www.w3.org/2000/svg"
   xmlns:svg="http://www.w3.org/2000/svg"
   xmlns:rdf="http://www.w3.org/1999/02/22-rdf-syntax-ns#"
   xmlns:cc="http://creativecommons.org/ns#"
   xmlns:dc="http://purl.org/dc/elements/1.1/">
  <metadata
     id="metadata88">
    <rdf:RDF>
      <cc:Work
         rdf:about="">
        <dc:format>image/svg+xml</dc:format>
        <dc:type
           rdf:resource="http://purl.org/dc/dcmitype/StillImage" />
      </cc:Work>
    </rdf:RDF>
  </metadata>
  <g
     id="g7213"
     transform="matrix(0.74863084,0,0,0.74863084,3.6630312,12.683653)">
    <path
       style="fill:#929292;fill-opacity:1;stroke:none;stroke-width:0.981526px;stroke-linecap:butt;stroke-linejoin:miter;stroke-opacity:1"
       d="M 3.7280174,41.1484 C 3.2136794,40.211979 2.036631,39.983928 1.1540033,39.608733 0.81561936,39.464889 0.56259055,39.173443 0.21768548,39.033252 c -0.0951967,-0.03869 -0.50030859,-0.161637 -0.55904615,-0.03971 -0.0250184,0.05193 0.0190366,0.119594 0,0.174194 -0.0847265,0.243012 -0.26539127,0.514082 -0.32812075,0.78199 -0.0682544,0.291505 -0.005944,0.440751 -0.0654847,0.747677 -0.004827,0.02488 -0.0615781,-0.02224 -0.0733411,0 -0.0328151,0.06206 -0.0475116,0.161587 0,0.212372 0.49422736,0.52828 1.26732915,0.805551 1.82938862,1.242303 0.3013945,0.234201 0.3548517,0.701414 0.6302358,0.905777 0.3206234,0.237936 0.6432536,0.501069 0.9539339,0.767009 0.1178137,0.100848 0.3467373,0.174087 0.463854,0.279846 0.075775,0.06843 0.2498816,0.299713 0.3241025,0.336837 0.1527526,0.07641 0.2687773,0.105446 0.3905318,0.197069 0.078016,0.05871 0.1666995,-0.05692 0.2088317,-0.07922 0.2146143,-0.113624 0.4650039,-0.169747 0.5904262,-0.300155 0.098121,-0.102021 0.1504315,-0.647651 0.3155669,-0.486568 0.1757338,0.17142 0.3882394,0.545145 0.6049823,0.784407 0.046385,0.0512 0.1244673,0.05673 0.1816949,0.0943 0.2646793,0.17377 0.4846445,0.462646 0.7491986,0.635808 0.1519427,0.09945 0.3719342,0.18904 0.5117258,0.305352 0.1497693,0.124615 0.2447872,0.316432 0.4071807,0.422653 0.8226366,0.538085 1.7591137,0.918493 2.5619652,1.48057 0.1968423,0.137809 0.3521893,0.335507 0.5575043,0.465412 0.215463,0.136324 0.50825,0.207039 0.708151,0.367528 0.09796,0.07864 0.154193,0.21073 0.262698,0.272683 0.104036,0.0594 0.594062,0.165958 0.763617,0.301969 0.359551,0.288419 0.696799,0.558947 1.052855,0.855852 0.267626,0.223166 0.637789,0.332292 0.916269,0.558916 0.09712,0.07904 0.153641,0.210048 0.261797,0.271746 0.167918,0.09579 0.377813,0.09211 0.545318,0.188678 0.381113,0.219709 0.707076,0.533319 1.088189,0.753026 0.167517,0.09657 0.369879,0.108788 0.545355,0.188692 0.478157,0.217734 1.071485,0.647354 1.487704,0.87852 0.36161,0.200837 0.764535,0.314755 1.123373,0.520879 0.244642,0.140528 0.451801,0.345276 0.697934,0.48297 0.134088,0.07501 0.297737,0.07834 0.433517,0.149997 0.171333,0.09042 0.311774,0.235091 0.479782,0.332006 1.468958,0.847368 0.475743,0.163726 2.146722,1.039448 1.179142,0.617961 -0.151641,0.113924 0.911859,0.481896 0.18192,0.06294 0.363839,0.125887 0.545759,0.188831 0.160562,0.111109 0.303642,0.256086 0.48169,0.333329 0.452489,0.196303 0.96872,0.190044 1.427334,0.370388 0.264618,0.104058 0.493442,0.293449 0.75929,0.394074 0.376629,0.142555 1.204079,0.276633 1.613018,0.418576 1.615988,0.56091 0.374822,0.410883 2.718186,0.848891 0.22885,0.04278 0.4669,-0.03029 0.697592,0 1.131287,0.148535 2.230739,0.663011 3.369354,0.773577 0.334197,0.03245 0.672748,-0.03218 1.006969,0 0.203212,0.01957 0.390916,0.132898 0.593973,0.154134 0.484268,0.05065 0.976761,-0.05891 1.460161,0 0.175379,0.02137 0.338503,0.112449 0.513933,0.133366 1.220075,0.145474 2.539819,0 3.776544,0 0.917423,0 2.484563,0.142928 3.293169,0 0.149883,-0.02649 0.282841,-0.12318 0.432718,-0.14972 0.595686,-0.105485 1.2399,0.08415 1.839092,0 0.242801,-0.0341 0.469497,-0.157716 0.713091,-0.185049 0.447164,-0.05017 0.905921,0.07837 1.349307,0 0.471821,-0.0834 0.916259,-0.244478 1.387799,-0.336919 0.135849,-0.02663 0.278501,0.02432 0.414751,0 0.07988,-0.01426 0.137612,-0.09857 0.217483,-0.112873 0.360943,-0.06465 0.734931,-0.0844 1.096361,-0.150029 0.313709,-0.05696 0.595051,-0.244014 0.906385,-0.313607 0.112517,-0.02515 0.234393,0.03198 0.34529,0 0.31117,-0.08973 0.596467,-0.259728 0.904512,-0.360408 0.06302,-0.0206 0.13214,0 0.198211,0 0.144459,-0.04998 0.291466,-0.09264 0.433378,-0.149948 0.382055,-0.154286 0.785418,-0.37854 1.194342,-0.450888 0.135546,-0.02398 0.27902,0.03425 0.412505,0 0.836672,-0.214641 1.635655,-0.748342 2.491452,-0.899633 0.135797,-0.02401 0.277134,0.02192 0.413258,0 0.343356,-0.0553 1.688277,-0.653939 1.986965,-0.780243 0.427418,-0.180741 0.913302,-0.509392 1.358159,-0.629981 0.28745,-0.07792 0.585226,-0.127144 0.884718,-0.225744 0.11993,-0.03948 0.213113,-0.156302 0.337605,-0.175214 0.455673,-0.06922 0.892518,-0.166615 1.363414,-0.284992 0.199265,0.109669 0.18205,-0.160016 0.293504,-0.192089 0.526027,-0.151379 1.005844,-0.403873 1.521343,-0.623328 0.149792,-0.06377 0.274993,-0.196226 0.434422,-0.225468 0.0954,-0.0175 0.196553,0.02403 0.290618,0 0.120329,-0.03074 0.200526,-0.153315 0.311363,-0.210839 0.44159,-0.229185 0.906515,-0.417242 1.316163,-0.709654 0.237684,-0.169662 0.414215,-0.397345 0.668187,-0.551652 0.802582,-0.487625 1.62722,-0.939433 2.418711,-1.429601 0.239103,-0.148076 0.37364,-0.363766 0.591972,-0.519634 0.232297,-0.165837 1.163283,-0.586589 1.302151,-0.759206 0.07601,-0.09449 0.08149,-0.23723 0.159106,-0.330309 0.181688,-0.217905 0.539088,-0.302981 0.768342,-0.448085 0.163047,-0.1032 0.254659,-0.326417 0.41644,-0.432259 0.51144,-0.334604 0.929844,-0.740903 1.4121,-1.128121 0.359438,-0.288605 0.816557,-0.436891 1.175306,-0.738855 0.284685,-0.239624 0.503549,-0.44214 0.81544,-0.639088 0.336099,-0.212233 0.709918,-0.299012 1.04584,-0.511413 0.409449,-0.258892 0.92058,-0.68508 1.373783,-0.832149 0.542819,-0.176151 -0.422987,0.398449 0.486505,-0.165156 1.705784,-1.057062 3.458405,-2.035417 5.153247,-3.117666 0.733014,-0.46807 1.517234,-0.850785 2.252165,-1.331994 0.107623,-0.07047 0.255694,-0.244194 0.370857,-0.272181 0.248767,-0.06046 0.418239,-0.04585 0.650041,-0.207312 0.775158,-0.539931 1.518283,-0.857521 2.37852,-1.205233 0.183603,-0.07421 0.505643,-0.334874 0.654249,-0.419123 1.044697,-0.59227 0.04674,-0.08777 0.633677,-0.225508 0.329797,-0.07739 1.110387,-0.614999 1.496258,-0.815265 0.150505,-0.07811 0.415158,-0.292616 0.557481,-0.323431 0.08134,-0.01761 0.171986,0.03166 0.249281,0 0.339886,-0.139196 1.047955,-0.510149 1.392727,-0.709879 0.33063,-0.191539 0.653887,-0.283873 0.976217,-0.518327 0.53988,-0.392689 -0.10678,0.08712 0.22641,-0.07395 0.19722,-0.09534 0.11539,-0.603499 0.11539,-0.759108 0,-0.159894 0.12954,-1.790494 0.18527,-1.931686 0.0387,-0.09825 0.1087,-0.182931 0.13721,-0.284895 0.0196,-0.07007 0.0559,-0.835488 0,-0.87012 -0.13075,-0.08103 -0.15461,-0.126052 -0.31823,-0.240119 -0.19979,-0.139291 -1.346205,0.626959 -1.560484,0.78255 -0.187297,0.135998 -0.339004,0.416613 -0.545692,0.503957 -0.103499,0.04374 -0.2219,0.03842 -0.326336,0.07969 -0.215681,0.08523 -0.356469,0.381201 -0.571799,0.468342 -0.780039,0.315671 -1.410128,0.925944 -2.128483,1.380086 -0.186246,0.117745 -0.364896,0.255446 -0.569036,0.335055 -0.06223,0.02427 -0.137398,-0.02479 -0.199439,0 -0.02644,0.01057 -0.429139,0.360908 -0.536439,0.391668 -0.06432,0.01844 -0.136621,-0.02114 -0.200155,0 -0.09674,0.03218 -0.156718,0.208104 -0.2479,0.257319 -0.660605,0.356555 -1.227167,0.769971 -1.864494,1.185896 -0.468277,0.305602 0.133058,-0.07532 -0.07678,0.142374 -0.146682,0.152172 -0.399733,0.33142 -0.585279,0.482303 -0.499444,0.406143 -1.014528,0.690852 -1.557654,0.96664 -0.206369,0.104791 -0.367018,0.381992 -0.602913,0.450086 -0.06381,0.01842 -0.138591,-0.02892 -0.19867,0 -0.239712,0.115376 -0.462923,0.265505 -0.702586,0.380988 -0.152068,0.07327 -0.261163,0.283501 -0.405429,0.36616 -0.251601,0.144158 -0.621689,0.264841 -0.874698,0.338054 -0.06959,0.02014 -0.0843,0.136695 -0.153251,0.159074 -0.505244,0.163981 -0.977969,0.513206 -1.440142,0.806815 -0.25051,0.159143 -0.566215,0.173533 -0.853862,0.303074 -0.296994,0.13375 -0.599484,0.366886 -0.911635,0.539656 -0.351112,0.194334 -0.813672,0.297954 -1.029086,0.554571 -0.06272,0.07471 -0.338789,0.03937 -0.386566,0.121409 -0.04316,0.07412 -0.181931,0.205046 -0.234225,0.252663 -0.015,0.01366 -0.186677,0.02774 -0.192756,0.04085 -0.02759,0.05952 -0.06696,0.131789 -0.112887,0.169283 -0.145774,0.119004 -0.5156,0.159285 -0.616564,0.377464 -9.9e-5,2.14e-4 -1.759002,0.728696 -1.939922,0.843338 -0.939384,0.59525 -1.886818,1.186726 -2.846236,1.759055 -0.511227,0.304967 0.136369,-0.103322 -0.574224,0.181134 -0.468348,0.187483 -0.912163,0.545328 -1.349691,0.807447 -0.603081,0.361299 -1.229287,0.684411 -1.801358,1.080942 -0.06735,0.04668 -1.427637,0.736648 -1.49853,0.753783 -0.08136,0.01966 -0.171508,-0.02791 -0.250591,0 -0.553015,0.195199 -1.063298,0.668759 -1.609963,0.887714 -0.149526,0.05989 -0.316633,0.05928 -0.468349,0.112911 -0.469292,0.165885 -1.011232,0.571859 -1.478472,0.785786 -0.575454,0.263473 -1.144289,0.511128 -1.75041,0.67534 -0.156223,0.04232 -0.276951,0.182763 -0.433235,0.224846 -0.06462,0.0174 -0.136762,-0.02129 -0.200299,0 -0.04284,0.01436 -0.05268,0.08474 -0.09551,0.09914 -1.56e-4,5.2e-5 -0.398011,-5.3e-5 -0.39832,0 -0.8696,0.147127 -0.06859,0.06324 -0.932447,0.277984 -0.06475,0.0161 -0.13317,0 -0.199756,0 -0.174581,0.02269 -0.353231,0.02305 -0.523744,0.06808 -0.09951,0.02628 -0.177482,0.111341 -0.275532,0.143001 -0.263794,0.08518 -0.617562,0.04482 -0.89134,0.09511 -0.54774,0.100623 -1.124342,0.329343 -1.673217,0.465858 -0.12917,0.03213 -0.269435,-0.03267 -0.398478,0 -0.185355,0.04692 -0.357638,0.140943 -0.54299,0.187877 -0.399023,0.101037 -0.875265,0.04062 -1.279999,0.113125 -0.07984,0.0143 -0.137541,0.09858 -0.217386,0.11282 -0.272342,0.04858 -0.557992,-0.05604 -0.829001,0 -0.100173,0.02071 -0.173903,0.121523 -0.274073,0.142244 -0.135193,0.02797 -0.278361,-0.02796 -0.413555,0 -0.100152,0.02072 -0.175622,0.113851 -0.274018,0.142218 -3.349326,0.965573 0.281383,-0.07812 -1.387716,0.218066 -0.150228,0.02666 -0.283529,0.123429 -0.433757,0.150081 -0.307847,0.05462 -0.628099,-0.04823 -0.936935,0 -0.150004,0.02343 -0.282184,0.122951 -0.431725,0.149378 -0.01412,0.0025 -0.813155,-0.0025 -0.827211,0 -0.303674,0.05392 -0.592971,0.178856 -0.896662,0.232683 -0.931051,0.165021 -1.448886,0.09316 -2.329963,0.149287 -3.271812,0.208439 -6.502776,0.114617 -9.740748,-0.254201 -0.893244,-0.101743 -1.888748,-0.265163 -2.771994,-0.474492 -0.147866,-0.03504 -0.281692,-0.125856 -0.431664,-0.149356 -0.171885,-0.02693 -0.34952,0.02629 -0.521497,0 -0.08028,-0.01227 -0.139521,-0.09056 -0.217729,-0.113001 -0.32166,-0.09232 -0.648379,-0.164511 -0.971849,-0.249742 -0.558913,-0.147267 -1.180544,-0.157131 -1.727035,-0.34447 -1.082493,-0.371082 -0.06378,-0.15821 -0.994785,-0.398997 -0.521022,-0.134753 -1.082411,-0.229632 -1.586245,-0.417249 -0.407831,-0.151867 -0.839433,-0.26223 -1.243906,-0.43241 -0.305074,-0.128358 -0.279538,-0.199015 -0.634865,-0.267098 -0.09526,-0.01825 -0.197967,0.02938 -0.290607,0 -0.162781,-0.05163 -0.296033,-0.178778 -0.456723,-0.237039 -0.574469,-0.208283 -1.174918,-0.330517 -1.75578,-0.518733 -0.268347,-0.08695 -0.650987,-0.348436 -0.925558,-0.405419 -0.135513,-0.02812 -0.278388,0.02431 -0.414583,0 -0.289034,-0.05159 -0.578037,-0.305397 -0.865278,-0.37462 -0.08149,-0.01964 -0.169483,0.01962 -0.250979,0 -0.388335,-0.09349 -0.746715,-0.378429 -1.12691,-0.481485 -0.865778,-0.234677 -1.733389,-0.643104 -2.589007,-0.963955 -0.429963,-0.161233 -0.914579,-0.201815 -1.352712,-0.33858 -0.588382,-0.183666 -1.120588,-0.509681 -1.680753,-0.661203 -0.344075,-0.09307 -0.646058,-0.388462 -0.987142,-0.481036 -0.312081,-0.0847 -0.653183,-0.0456 -0.971611,-0.145604 -0.280956,-0.102592 -0.561911,-0.205185 -0.842867,-0.307777 -0.06634,0 -0.135107,0.01848 -0.199012,0 C 11.680138,44.604887 10.526401,44.057767 9.3753176,43.745125 8.8405153,43.59987 8.3420737,43.236674 7.8268074,43.036354 c -0.052387,-0.02037 -0.1118815,0 -0.1678222,0 C 7.385841,42.918612 7.115983,42.792295 6.8395526,42.68313 6.6883025,42.623399 6.1889327,42.518862 6.0958831,42.490634 5.7873812,42.397046 5.5784728,42.224572 5.3121995,42.059456 c -0.023665,-0.01467 -0.085148,0.02017 -0.1046141,0 C 4.7984883,41.635514 4.3041457,41.355366 3.7280174,41.1484 Z"
       id="path2851" />
    <path
       style="fill:#928e8e;fill-opacity:1;stroke:none;stroke-width:1px;stroke-linecap:butt;stroke-linejoin:miter;stroke-opacity:1"
       d="m -1.4991308,42.735938 c -1.1058155,-1.805325 0.63514461,-4.073444 2.2367619,-4.329223 1.2683175,-0.267184 1.8177629,-0.160114 2.8855472,-0.487615 0.1235884,-0.05194 0.2719291,0.03173 0.402179,0 0.1196006,-0.02914 0.2108164,-0.135577 0.3303094,-0.165154 0.4134428,-0.102333 0.7595316,-0.05674 1.178688,-0.222474 0.2329368,-0.0921 0.5335239,-0.0052 0.7817065,-0.06039 0.3994946,-0.08888 0.3962118,-0.122849 0.7603721,-0.279131 0.2308139,-0.09906 0.6283126,0.0044 0.8559424,-0.09462 0.6352961,-0.276298 1.3695089,-0.375454 2.0458833,-0.496995 0.70303,-0.126331 -0.2892465,0.199087 0.628473,-0.06802 0.416169,-0.121127 0.812417,-0.273183 1.229534,-0.402793 0.417297,-0.129666 0.953852,-0.02643 1.366376,-0.189882 0.04995,-0.01979 0.06402,-0.0942 0.113978,-0.113975 0.183266,-0.07255 0.444053,-0.08072 0.633526,-0.142757 0.436832,-0.143035 0.837042,-0.290852 1.281892,-0.428889 0.08196,-0.02543 0.351202,-0.190875 0.474479,-0.209914 0.7657,-0.118258 -0.322243,0.260875 0.889305,-0.143001 0.03549,-0.01183 0.0529,-0.0529 0.07935,-0.07935 0.07517,-0.03758 0.143633,-0.09379 0.225507,-0.112756 0.08483,-0.01965 0.17639,0.01963 0.261223,0 0.163963,-0.03794 0.352615,-0.174152 0.513154,-0.225189 0.51653,-0.16421 1.000391,-0.34961 1.505483,-0.504955 0.241594,-0.0743 0.506435,-0.06172 0.755172,-0.112929 0.539404,-0.111049 1.061299,-0.327259 1.59813,-0.451389 0.472438,-0.10924 0.949772,-0.0751 1.432544,-0.156367 0.104538,-0.0176 0.182622,-0.112754 0.284451,-0.142226 0.149471,-0.04326 0.315294,0.03541 0.466817,0 0.280193,-0.06548 0.664561,-0.140789 0.98009,-0.192188 0.135995,-0.02215 0.278851,0.02986 0.413365,0 0.224432,-0.04982 0.495532,-0.02418 0.718973,-0.0825 0.08159,-0.0213 0.143037,-0.09952 0.226251,-0.113126 0.333657,-0.05455 0.756403,0.08618 1.086732,0 0.08149,-0.02126 0.143943,-0.09392 0.22597,-0.112984 0.550913,-0.128074 2.371653,0 2.990055,0 h 9.828363 5.130901 c 0.843671,0 1.733068,-0.08804 2.569355,0 0.331661,0.03491 0.657615,0.114392 0.989273,0.149332 0.667508,0.07032 1.368956,-0.100129 2.031914,0 0.155883,0.02354 0.294984,0.114483 0.448683,0.149561 0.315697,0.07205 0.742458,0 1.06488,0 0.744207,0 1.885689,-0.14211 2.560505,0 0.153619,0.03235 0.292031,0.122611 0.446797,0.148932 1.142494,0.194302 2.384013,-0.194052 3.526556,0 0.155219,0.02636 0.292879,0.12294 0.448088,0.149361 0.430054,0.07321 0.897455,-0.07312 1.327527,0 0.129557,0.02203 0.245071,0.09931 0.374016,0.124671 0.369803,0.07273 0.790504,-0.05209 1.162536,0 0.341837,0.04787 0.672334,0.158312 1.012294,0.218068 0.280982,0.04939 0.573391,-0.03995 0.855871,0 0.310262,0.04388 0.606313,0.160907 0.914405,0.218068 0.225956,0.04192 0.462899,-0.03867 0.689435,0 0.155744,0.02658 0.293438,0.12631 0.449665,0.149888 0.24713,0.0373 0.505434,-0.0525 0.749786,0 0.128524,0.02761 0.243103,0.114129 0.374134,0.124713 0.388699,0.0314 0.781197,-0.0314 1.169897,0 0.08373,0.0068 0.142619,0.09846 0.225406,0.112703 0.141115,0.02428 0.287738,-0.01969 0.429566,0 0.256547,0.03562 0.53498,0.158742 0.79843,0.207376 0.156181,0.02883 0.324758,-0.04702 0.476458,0 1.136583,0.352265 -1.419286,-0.105083 1.112988,0.360602 0.117329,0.02158 0.241445,-0.02593 0.35789,0 0.104525,0.02327 0.182822,0.120365 0.287341,0.143665 0.116182,0.0259 0.240744,-0.02509 0.357104,0 0.335686,0.07238 0.638928,0.267439 0.977338,0.325778 0.09909,0.01708 0.202769,-0.01824 0.30165,0 0.468192,0.08638 0.88849,0.427058 1.351185,0.494719 0.376719,0.05509 0.782831,0.07929 1.150775,0.165157 0.181977,0.04247 0.348576,0.175318 0.528555,0.226142 0.33262,0.09393 0.760965,-0.01049 1.099432,0.09469 0.48292,0.150058 0.946911,0.299754 1.432815,0.450698 0.301726,0.09373 1.032031,0.05386 1.250242,0.09487 0.304194,0.05718 0.646821,0.192658 0.955857,0.259281 0.141278,0.03046 0.292153,-0.0298 0.433571,0 0.299921,0.0632 0.593811,0.130144 0.891406,0.207745 0.110958,0.02893 0.23537,-0.0367 0.344006,0 0.100548,0.03397 0.180117,0.124799 0.28478,0.142391 0.184874,0.03107 0.376832,-0.02661 0.562401,0 0.08341,0.01196 0.14764,0.08232 0.226097,0.113051 0.136377,0.05342 0.407938,-0.028 0.53871,0 0.08231,0.01762 0.144422,0.09166 0.225863,0.112929 0.150505,0.03931 0.313124,-0.02496 0.466663,0 0.146731,0.02385 0.285155,0.08668 0.431563,0.112435 0.722647,0.127122 2.353296,0 3.139436,0 0.995169,0 3.216632,0.222091 4.009616,-0.221978 0.139199,-0.07795 0.579303,-0.176745 0.579303,-0.287651 0,-0.02696 -0.371029,0.172508 -0.6113,0.412775 -0.257852,0.257848 -0.694329,0.242101 -0.954605,0.552293 -0.0678,0.0808 -0.07198,0.203697 -0.141503,0.283017 -0.294296,0.335784 -1.029021,0.579557 -1.427003,0.81254 -0.85373,0.499783 -1.716242,0.986468 -2.547322,1.510068 -1.106258,0.696969 -2.288825,1.289953 -3.411989,1.973684 -0.49287,0.300038 -0.979388,0.577753 -1.499678,0.841832 -0.06217,0.03156 -0.102725,0.1466 -0.167626,0.167632 -0.0653,0.02116 -0.142176,-0.02544 -0.205933,0 -0.242322,0.09668 -0.424612,0.310226 -0.644201,0.391266 -0.102472,0.03782 -0.254942,0.04859 -0.352377,0.09458 -0.537224,0.253529 -1.076375,0.797429 -1.650338,0.957313 -0.06641,0.0185 -0.140398,-0.01845 -0.206826,0 -0.256423,0.07121 -1.537852,0.896999 -1.835047,1.097991 -0.118232,0.07996 -0.35341,0.124391 -0.494666,0.210459 -0.08845,0.05389 -0.140648,0.193491 -0.234776,0.234784 -0.602279,0.264213 -1.185523,0.597214 -1.764423,0.941832 -0.764143,0.454894 -1.563522,0.794101 -2.351427,1.255466 -0.34433,0.201626 -0.833672,0.614458 -1.211031,0.719156 -0.560008,0.155374 0.235548,-0.27008 -0.491447,0.142361 -0.88925,0.504493 -1.74576,1.047476 -2.593353,1.618896 -0.455578,0.307136 0.02062,-0.145171 -0.673053,0.261985 -0.111651,0.06553 -0.163005,0.209061 -0.274635,0.274633 -0.307572,0.180667 -0.681821,0.211548 -1.015211,0.338404 -0.264761,0.100743 -0.454501,0.357629 -0.723918,0.445167 -0.260973,0.08479 -0.548573,0.04152 -0.817701,0.09507 -0.221838,0.04414 -1.996694,0.73892 -2.137281,0.825355 -0.170799,0.10501 -0.321797,0.242685 -0.500472,0.333651 -0.650567,0.331213 -1.447018,0.492443 -2.13283,0.748545 -1.360699,0.508124 -0.115569,0.05855 -1.781229,0.882509 -0.730581,0.361398 -1.628511,0.542839 -2.403295,0.801102 -0.733652,0.244552 -2.140876,0.85569 -2.922411,0.974135 -0.177925,0.02697 -0.361765,-0.02576 -0.539869,0 -0.619737,0.08963 -1.193781,0.367536 -1.806969,0.489105 -0.616929,0.12231 -1.22839,0.274572 -1.849585,0.372949 -0.140713,0.02228 -0.286977,-0.02405 -0.427399,0 -0.710819,0.121738 -1.403249,0.454525 -2.122855,0.56835 -0.141519,0.02238 -0.288312,-0.02235 -0.429837,0 -0.03458,0.0055 -1.450916,0.36595 -1.481485,0.370372 -0.471722,0.06825 -0.948769,0.0682 -1.417438,0.149423 -0.08329,0.01443 -0.151216,0.07561 -0.226824,0.113415 -0.337524,0.07269 -0.671604,0.163777 -1.012571,0.218071 -0.11749,0.01871 -0.240788,-0.02587 -0.356913,0 -0.104333,0.02324 -0.181299,0.126349 -0.28682,0.14341 -0.403991,0.06532 -0.820176,-0.03726 -1.227715,0 -0.08299,0.0076 -0.158118,0.0527 -0.237177,0.07905 -0.390158,0 -0.780993,-0.02295 -1.170476,0 -0.682378,0.04021 -1.359779,0.145408 -2.041931,0.189292 -0.709224,0.04563 -1.421381,0 -2.132071,0 h -2.744172 c -0.300346,0 -0.603598,0.04169 -0.901036,0 -0.34223,-0.04797 -0.672243,-0.163811 -1.013532,-0.218066 -0.203662,-0.03238 -0.416865,0.0425 -0.618657,0 -0.310945,-0.06549 -0.626757,-0.123372 -0.939933,-0.18952 -0.616894,-0.130298 -1.106178,-0.491545 -1.665057,-0.731657 -0.781355,-0.335695 -1.568754,-0.691271 -2.335237,-1.055059 -0.464613,-0.220515 -0.889633,-0.52426 -1.367418,-0.714559 -0.69254,-0.275835 -1.3856,-0.545688 -2.079989,-0.8159 C 20.765822,56.200053 20.469121,55.978042 20.136435,55.84847 19.105968,55.447132 18.125993,54.933477 17.086562,54.546968 16.67085,54.392387 16.344505,54.057394 15.948689,53.857289 15.594098,53.678025 15.198246,53.590198 14.842503,53.41323 14.477446,53.231628 14.1855,52.931765 13.798532,52.786611 13.334022,52.612371 12.703906,52.445209 12.274136,52.193374 12.163102,52.128311 12.114363,51.981546 12.001137,51.920375 11.550798,51.677076 11.103989,51.580934 10.680718,51.314289 10.123233,50.963094 8.7804889,50.599754 8.3664142,50.152359 8.2942762,50.074416 8.296066,49.945331 8.2239285,49.867387 8.0174844,49.644328 7.5199912,49.512904 7.2606582,49.346043 6.9692376,49.158537 6.6977814,48.822221 6.4056347,48.661838 6.2240967,48.562177 6.0213382,48.500229 5.8499401,48.383992 5.5605504,48.187737 4.7573075,47.540461 4.5255023,47.342353 4.3709522,47.21027 4.2710479,47.011427 4.0942339,46.911085 3.7747465,46.729777 3.5832789,46.691486 3.3158977,46.481864 2.9852957,46.222678 2.661356,45.901181 2.2985041,45.73057 2.0239826,45.601491 1.3833693,44.878928 1.1195,44.755707 1.0473026,44.721992 0.81476468,44.659282 0.76077313,44.598816 0.71601205,44.548687 0.63944788,44.366292 0.54836176,44.315392 0.76077313,44.598816 1.5841128,45.367707 -1.4991308,42.735938 Z"
       id="path3131" />
    <path
       d="M 37.499323,33.513312 0,41.185268 37.978923,62.15883 78.978,42.4526 Z"
       id="path8"
       style="fill:#925326;fill-opacity:1;stroke-width:1.00001" />
    <path
       d="m 22.4007,47.187 0.8671,-5.3485 31.3912,-6.2111 6.416,5.0034 -19.7705,8.6266 z"
       id="path10"
       style="fill:#4b1802;fill-opacity:0.5" />
    <path
       d="M 24.9895,0 H 20.493 V 43.3058 H 40.0402 L 59.521,37.6978 V 11.15 h -2.827 v 2.7385 H 54.246 V 11.15 h -2.7022 v 2.7385 H 49.0021 V 11.15 H 46.3624 V 23.196 H 40.0402 V 0 H 35.9283 V 3.4843 H 32.4597 V 0 h -3.9889 v 3.4843 h -3.4813 z"
       id="path12"
       style="fill:url(#paint3_radial_58_179)" />
    <path
       d="m 28.8477,11.6172 c -1.5351,0.9162 -1.5345,4.0485 -1.1008,5.0772 l 4.9035,0.0995 c 0.1668,-0.2986 0.5012,-1.4903 0,-3.3847 -0.5003,-1.8916 -2.3016,-2.688 -3.8027,-1.792 z"
       id="path14"
       style="fill:#fffffc" />
    <path
       d="m 51.7462,21.8425 c -1.2634,0.7463 -1.2629,3.2978 -0.906,4.1358 h 4.0358 c 0.137,-0.2433 0.412,-1.1329 0,-2.6761 -0.412,-1.5409 -1.894,-2.1896 -3.1298,-1.4597 z"
       id="path16"
       style="fill:#fffeee" />
    <path
       d="m 22.6456,66.4254 c -5.2872,-6.572 -6.509,7.5 -8.5696,11.127 -2.5308,4.454 -8.3551,-3.498 -11.4464,-13.285 -2.4166,-7.651 -2.4582,-16.0211 -2.6014,-23.119 0,0 23.858037,12.896224 38.009736,13.292927 C 52.189636,54.838029 78.978,42.4526 78.978,42.4526 c 0,0 0.714,2.664 -0.733,15.7768 -1.447,13.112 -9.886,27.259 -12.314,18.633 -2.428,-8.627 -1.907,-15.355 -8.324,-11.56 -6.4171,3.796 -7.4576,17.762 -18.8061,18.615 -7.3433,0.551 -10.8681,-10.92 -16.1553,-17.492 z"
       id="path18"
       style="fill:#713914;fill-opacity:1" />
    <path
       d="m 30.3528,31.973 c -2.9491,2.0729 -3.3206,8.9721 -2.4874,11.2995 h 10.1725 c 0.3204,-0.6757 0.5837,-2.9594 -0.3791,-7.2454 -0.9613,-4.2794 -4.422,-6.0812 -7.306,-4.0541 z"
       id="path20"
       style="fill:url(#paint5_linear_58_179)" />
  </g>
  <defs
     id="defs82">
    <linearGradient
       gradientUnits="userSpaceOnUse"
       y2="184.435"
       x2="124.414"
       y1="28.3274"
       x1="-29.5518"
       id="paint0_linear_58_179">
      <stop
         id="stop40"
         stop-color="#ED3336" />
      <stop
         id="stop42"
         stop-color="#FF4471"
         offset="0.260417" />
      <stop
         id="stop44"
         stop-color="#F754BF"
         offset="0.605343" />
      <stop
         id="stop46"
         stop-color="#04B6DD"
         offset="1" />
    </linearGradient>
    <linearGradient
       gradientUnits="userSpaceOnUse"
       y2="148.015"
       x2="158.841"
       y1="77.061897"
       x1="2.32654"
       id="paint1_linear_58_179">
      <stop
         id="stop49"
         stop-color="#20FFBC" />
      <stop
         id="stop51"
         stop-color="#12D4FF"
         offset="1" />
    </linearGradient>
    <linearGradient
       gradientTransform="translate(-47.246,-47.4976)"
       gradientUnits="userSpaceOnUse"
       y2="105.464"
       x2="86.657799"
       y1="94.856796"
       x1="86.816299"
       id="paint2_linear_58_179">
      <stop
         id="stop54"
         stop-color="#ECA03A" />
      <stop
         id="stop56"
         stop-color="#F86E20"
         offset="1" />
    </linearGradient>
    <radialGradient
       gradientTransform="matrix(16.996124,45.72074,-41.351466,15.371901,27.6036,7.1598)"
       gradientUnits="userSpaceOnUse"
       r="1"
       cy="0"
       cx="0"
       id="paint3_radial_58_179">
      <stop
         id="stop59"
         stop-color="#8FE3F8" />
      <stop
         id="stop61"
         stop-color="#9387FC"
         offset="1" />
    </radialGradient>
    <linearGradient
       gradientTransform="translate(-47.246,-47.4976)"
       gradientUnits="userSpaceOnUse"
       y2="131.43401"
       x2="86.8274"
       y1="88.646004"
       x1="86.8274"
       id="paint4_linear_58_179">
      <stop
         id="stop64"
         stop-color="#EA5128" />
      <stop
         id="stop66"
         stop-color="#EF0948"
         offset="1" />
    </linearGradient>
    <linearGradient
       gradientTransform="translate(-47.246,-47.4976)"
       gradientUnits="userSpaceOnUse"
       y2="91.182404"
       x2="80.209503"
       y1="78.638702"
       x1="80.209503"
       id="paint5_linear_58_179">
      <stop
         id="stop69"
         stop-color="#D8F3FF" />
      <stop
         id="stop71"
         stop-color="#FFC5C0"
         offset="1" />
    </linearGradient>
    <linearGradient
       gradientUnits="userSpaceOnUse"
       y2="143.593"
       x2="161.334"
       y1="150.804"
       x1="26.7505"
       id="paint6_linear_58_179">
      <stop
         id="stop74"
         stop-color="#1DF6CB" />
      <stop
         id="stop76"
         stop-color="#13D6FE"
         offset="1" />
    </linearGradient>
    <clipPath
       id="clip0_58_179">
      <rect
         style="fill:#ffffff"
         y="0"
         x="0"
         id="rect79"
         height="199.56"
         width="173.48" />
    </clipPath>
  </defs>
</svg>
